<svg xmlns="http://www.w3.org/2000/svg" viewBox="0 0 48 48" fill="none">
  <defs>
    <linearGradient id="cl" x1="8" y1="6" x2="24" y2="20" gradientUnits="userSpaceOnUse">
      <stop stop-color="#ddd6fe"/>
      <stop stop-color="#a855f7"/>
    </linearGradient>
    <linearGradient id="cr" x1="40" y1="6" x2="24" y2="20" gradientUnits="userSpaceOnUse">
      <stop stop-color="#e9d5ff"/>
      <stop stop-color="#9333ea"/>
    </linearGradient>
    <linearGradient id="pl" x1="8" y1="20" x2="24" y2="44" gradientUnits="userSpaceOnUse">
      <stop stop-color="#7c3aed"/>
      <stop stop-color="#5b21b6"/>
    </linearGradient>
    <linearGradient id="pr" x1="40" y1="20" x2="24" y2="44" gradientUnits="userSpaceOnUse">
      <stop stop-color="#8b5cf6"/>
      <stop stop-color="#4c1d95"/>
    </linearGradient>
  </defs>
  <path d="M24 3.5 L42 18.5 L24 44.5 L6 18.5 Z" fill="none" stroke="#6d28d9" stroke-width="0.6" stroke-linejoin="round"/>
  <path d="M24 3.5 L6 18.5 L24 18.5 Z" fill="url(#cl)"/>
  <path d="M24 3.5 L42 18.5 L24 18.5 Z" fill="url(#cr)"/>
  <path d="M6 18.5 L24 44.5 L24 18.5 Z" fill="url(#pl)"/>
  <path d="M42 18.5 L24 44.5 L24 18.5 Z" fill="url(#pr)"/>
  <path d="M24 3.5 V18.5 M6 18.5 H42 M24 3.5 L6 18.5 M24 3.5 L42 18.5 M6 18.5 L24 44.5 M42 18.5 L24 44.5" stroke="rgba(255,255,255,0.45)" stroke-width="0.65" stroke-linecap="round" stroke-linejoin="round"/>
  <path d="M8 18.5 H40" stroke="rgba(255,255,255,0.7)" stroke-width="1" stroke-linecap="round"/>
  <path d="M11 9 L11.8 11.2 L14 12 L11.8 12.8 L11 15 L10.2 12.8 L8 12 L10.2 11.2 Z" fill="#e9d5ff" opacity="0.95"/>
  <circle cx="24" cy="5" r="1.1" fill="#fff" opacity="0.9"/>
</svg>
